<svg width="251" height="337" viewBox="0 0 251 337" fill="none" xmlns="http://www.w3.org/2000/svg">
<path d="M125.331 0C56.1124 0 0 56.1124 0 125.331C0 213.788 66.9156 292.268 125.331 337C182.406 293.695 250.661 210.855 250.661 125.331C250.661 56.1124 194.549 0 125.331 0Z" fill="#293237"/>
<path d="M123.947 62C124.169 62 124.399 62.0085 124.623 62.0102C124.848 62.0085 125.075 62 125.299 62H123.947ZM124.623 62.0102C108.893 62.1349 87.5808 66.564 78.6853 70.2704C69.6624 74.03 63.6453 77.7913 61.7658 87.19L55 134.326V206.119H66.6584V214.892C66.6584 228.62 86.7408 228.62 86.7408 214.892V206.119H123.835H123.947H162.505V214.892C162.505 228.62 182.598 228.62 182.598 214.892V206.119H194.256V134.326L187.49 87.19C185.611 77.7913 179.594 74.03 170.571 70.2704C161.675 66.5636 140.354 62.134 124.623 62.0102ZM95.9836 75.1631H123.947H153.273C158.912 75.1631 158.912 83.6177 153.273 83.6177H123.886H95.9836C90.3441 83.6177 90.3441 75.1631 95.9836 75.1631ZM80.7734 92.1645H123.886H168.473C174.43 92.1645 175.989 95.1884 176.712 99.7798L181.984 132.596C182.475 136.219 181.42 139.813 176.415 139.813H123.947H72.8305C67.826 139.813 66.7815 136.219 67.2726 132.596L72.5439 99.7798C73.2672 95.1884 74.8162 92.1645 80.7734 92.1645ZM76.7098 164.337C82.0316 164.337 86.3416 168.657 86.3416 173.979C86.3416 179.301 82.0316 183.611 76.7098 183.611C71.388 183.611 67.0678 179.301 67.0678 173.979C67.0678 168.657 71.388 164.337 76.7098 164.337ZM172.546 164.337C177.868 164.337 182.178 168.657 182.178 173.979C182.178 179.301 177.868 183.611 172.546 183.611C167.225 183.611 162.904 179.301 162.904 173.979C162.904 168.657 167.225 164.337 172.546 164.337Z" fill="white"/>
</svg>
