<svg width="262" height="340" viewBox="0 0 262 340" fill="none" xmlns="http://www.w3.org/2000/svg">
<circle cx="131" cy="127" r="63" fill="#111A66"/>
<path d="M10 131C10 64.1735 64.1735 10 131 10C197.826 10 252 64.1735 252 131C252 153.542 245.845 174.617 235.13 192.668L148.753 322.318C148.752 322.32 148.75 322.322 148.749 322.324C148.738 322.338 148.724 322.357 148.706 322.38C148.607 322.507 148.403 322.762 148.09 323.104C147.46 323.793 146.426 324.797 144.975 325.823C142.14 327.829 137.62 330 131 330C124.38 330 119.86 327.829 117.025 325.823C115.574 324.797 114.54 323.793 113.91 323.104C113.597 322.762 113.393 322.507 113.294 322.38C113.276 322.357 113.262 322.338 113.251 322.324L26.87 192.668C16.1549 174.617 10 153.542 10 131Z" stroke="#111A66" stroke-width="20"/>
</svg>
